<svg width="178" height="178" xmlns="http://www.w3.org/2000/svg" xmlns:xlink="http://www.w3.org/1999/xlink" overflow="hidden"><defs><clipPath id="clip0"><path d="M586 153 764 153 764 331 586 331Z" fill-rule="evenodd" clip-rule="evenodd"/></clipPath></defs><g clip-path="url(#clip0)" transform="translate(-586 -153)"><path d="M171.838 146.025 5.16249 146.025C2.31081 146.025 0 148.336 0 151.187L0 171.838C0 174.689 2.31081 177 5.16249 177L171.838 177C174.689 177 177 174.689 177 171.838L177 151.187C177 148.336 174.689 146.025 171.838 146.025ZM171.838 73.0118 5.16249 73.0118C2.31081 73.0118 0 75.3226 0 78.1743L0 98.8244C0 101.676 2.31081 103.987 5.16249 103.987L171.838 103.987C174.689 103.987 177 101.676 177 98.8244L177 78.1743C177 75.3226 174.689 73.0118 171.838 73.0118ZM171.838 0 5.16249 0C2.31081 0 0 2.31081 0 5.16249L0 25.8126C0 28.6644 2.31081 30.9752 5.16249 30.9752L171.838 30.9752C174.689 30.9752 177 28.6644 177 25.8126L177 5.16249C177 2.31081 174.689 0 171.838 0Z" fill="#FFFFFF" fill-rule="evenodd" transform="matrix(-1 -8.74228e-08 -8.74228e-08 1 764 153)"/></g></svg>